# xmcd
#
# Track frame offsets:
#	150
#	20215
#	34115
#	48827
#	66551
#	84275
#	100240
#	116386
#	133982
#	147748
#	160490
#	180145
#	200210
#	214085
#	228797
#	246521
#	262486
#	278632
#	296228
#	309994
#	322736
#	353641
#
# Disc length: 4721 seconds
#
# Revision: 1
# Processed by: cddbd v1.5.2PL0 Copyright (c) Steve Scherf et al.
# Submitted via: audiograbber 1.83.01
#
DISCID=56126f16
DTITLE=Man of Constant Sorrow - TTM 008
DYEAR=1900
DGENRE=Karaoke
TTITLE0=Harry McLintock - Big Rock Candy
TTITLE1=Alison Kraus - Down In The River To Pray
TTITLE2=Cox Family - I Am Weary (Let Me Rest)
TTITLE3=Alison Kraus and Gillian Welch - I'll Fly Away (High Harmony)
TTITLE4=Alison Kraus and Gillian Welch - I'll Fly Away (Low Harmony)
TTITLE5=Soggy Bottom Boys - In The Jailhouse Now
TTITLE6=The Whites - Keep On The Sunny Side Of Life
TTITLE7=Soggy Bottom Boys - Man Of Constant Sorrow
TTITLE8=Ralph Stanley - O Death
TTITLE9=Cox Family - Will There Be Any Stars In My Crown
TTITLE10=Norman Blake - You Are My Sunshine
TTITLE11=Harry McLintock - Big Rock Candy (vocals)
TTITLE12=Alison Kraus - Down In The River To Pray (vocals)
TTITLE13=Cox Family - I Am Weary (Let Me Rest) (vocals)
TTITLE14=Alison Kraus and Gillian Welch - I'll Fly Away (vocals)
TTITLE15=Soggy Bottom Boys - In The Jailhouse Now (vocals)
TTITLE16=The Whites - Keep On The Sunny Side Of Life (vocals)
TTITLE17=Soggy Bottom Boys - Man of Constant Sorrow (vocals)
TTITLE18=Ralph Stanley - O Death (vocals)
TTITLE19=Cox Family - Will There Be Any Stars In My Crown (vocals)
TTITLE20=Norman Blake - You Are My Sunshine (vocals)
TTITLE21=Top Tunes - Data Track
EXTD=
EXTT0=
EXTT1=
EXTT2=
EXTT3=
EXTT4=
EXTT5=
EXTT6=
EXTT7=
EXTT8=
EXTT9=
EXTT10=
EXTT11=
EXTT12=
EXTT13=
EXTT14=
EXTT15=
EXTT16=
EXTT17=
EXTT18=
EXTT19=
EXTT20=
EXTT21=
PLAYORDER=
